<?xml version="1.0" encoding="UTF-8"?>
<svg id="Layer_2" data-name="Layer 2" xmlns="http://www.w3.org/2000/svg" viewBox="0 0 225 197">
  <defs>
    <style>
      .cls-1 {
        fill: #fff;
      }
    </style>
  </defs>
  <g id="Layer_1-2" data-name="Layer 1">
    <g>
      <path class="cls-1" d="m225,197H0V0h225v197Zm-17.94-131.27c-7.92,0-14.91.19-21.87-.08-3.21-.13-4.7,1.16-6,3.87-5.59,11.72-11.36,23.35-17.09,35-3.48,7.08-7,14.13-10.87,21.94-1.33-2.6-2.17-4.37-3.12-6.08-5.92-10.59-11.38-21.5-18.01-31.63-3.74-5.71-8.65-11.39-14.37-14.93-28.59-17.7-67.42-4.83-80.62,26.14-9.87,23.14-3.56,49.23,15.98,66.11,17.9,15.47,44.89,17.43,65.78,4.8,1.2-.73,2.46-1.36,4.33-2.39v10.31h22.81c-.34-2.57-.09-5.05-1-6.98-6.96-14.72-14.16-29.33-21.64-44.71-.87,2.64-1.46,4.51-2.1,6.35-4.63,13.25-16.52,22.18-30.44,22.87-13.39.67-26.68-7.18-32.33-19.5-5.56-12.12-4.2-23.84,3.74-34.4,8.44-11.23,19.98-16.17,33.84-13.09,13.18,2.93,21.89,11.41,26.02,24.39.7,2.21,1.18,4.53,2.16,6.6,5.31,11.12,10.73,22.18,16.15,33.25,4.14,8.46,8.33,16.89,12.85,26.06,18.72-38.2,37.01-75.53,55.81-113.9ZM121.69,9.48c-.3.76-.52,1.07-.52,1.37-.04,19.98-.09,39.96-.02,59.94,0,1.14.82,2.4,1.55,3.39,6.18,8.43,12.43,16.81,18.66,25.19.61.82,1.3,1.59,2.14,2.61V9.48h-21.81Z"/>
      <path d="m207.06,65.73c-18.8,38.37-37.09,75.7-55.81,113.9-4.52-9.17-8.71-17.6-12.85-26.06-5.42-11.07-10.84-22.13-16.15-33.25-.99-2.07-1.46-4.39-2.16-6.6-4.13-12.98-12.84-21.47-26.02-24.39-13.86-3.07-25.4,1.87-33.84,13.09-7.93,10.56-9.29,22.28-3.74,34.4,5.65,12.32,18.94,20.17,32.33,19.5,13.92-.7,25.81-9.62,30.44-22.87.64-1.84,1.23-3.71,2.1-6.35,7.48,15.38,14.67,29.99,21.64,44.71.91,1.93.67,4.41,1,6.98h-22.81v-10.31c-1.87,1.03-3.13,1.66-4.33,2.39-20.89,12.63-47.88,10.67-65.78-4.8-19.54-16.89-25.85-42.97-15.98-66.11,13.21-30.97,52.04-43.84,80.62-26.14,5.72,3.54,10.64,9.22,14.37,14.93,6.63,10.13,12.08,21.04,18.01,31.63.95,1.7,1.79,3.47,3.12,6.08,3.87-7.81,7.39-14.86,10.87-21.94,5.73-11.65,11.5-23.29,17.09-35,1.3-2.72,2.78-4,6-3.87,6.96.27,13.95.08,21.87.08Z"/>
      <path d="m121.69,9.48h21.81v92.5c-.84-1.02-1.53-1.79-2.14-2.61-6.24-8.39-12.48-16.77-18.66-25.19-.73-.99-1.54-2.25-1.55-3.39-.07-19.98-.02-39.96.02-59.94,0-.3.22-.61.52-1.37Z"/>
    </g>
  </g>
</svg>